<svg xmlns="http://www.w3.org/2000/svg" viewBox="0 0 512.008 512.008"><path d="M256.004.008c141.385 0 256 114.615 256 256s-114.615 256-256 256-256-114.615-256-256 114.615-256 256-256z" fill="#5dddd3"/><path d="M144.003 412.122h6.526c38.364.393 75.374 7.718 104.301 25.246 28.983-17.528 68.284-24.849 106.647-25.246H368c33.177.323 67.623 5.63 99.904 13.833v14.794c-77.803-19.519-159.948-18.803-195.143 4.365-6.203 7.205-14.637 6.706-17.833 5.667-2.628 1.035-9.482 1.538-15.685-5.667-35.195-23.168-117.34-23.884-195.143-4.365v-14.794c32.28-8.203 66.727-13.505 99.903-13.833z" fill="#c8cacc"/><path d="M44.104 149.028c73.632-22.47 168.156-22.323 211.9 12.614 43.749-34.936 138.272-35.084 211.9-12.614v276.923c-72.741-18.48-156.489-22.276-211.9 12.554-55.407-34.83-139.154-31.034-211.9-12.554V149.028z" fill="#fff"/><path d="M241.644 152.307c4.582 2.342 10.517 6.194 14.355 9.335 4.143-3.307 8.739-6.3 13.727-8.997v278.276a141.726 141.726 0 0 0-13.727 7.579l-13.113-7.288-1.242-278.909v.004z" fill="#ecf0f1"/><path d="M256.004 189.959c-47.287-46.663-152.941-32.174-211.9-17.214v-3.242c59.263-14.905 162.844-28.715 211.9 16.558 49.056-45.273 152.637-31.468 211.9-16.558v3.242c-58.959-14.96-164.609-29.449-211.9 17.214zm0 20.697c47.292-46.659 152.941-32.174 211.9-17.214V190.2c-59.263-14.905-162.844-28.715-211.9 16.563-49.056-45.278-152.632-31.468-211.9-16.563v3.242c58.958-14.96 164.613-29.449 211.9 17.214zm0 20.697c47.292-46.659 152.941-32.174 211.9-17.214v-3.242c-59.263-14.905-162.844-28.715-211.9 16.558-49.056-45.278-152.632-31.468-211.9-16.558v3.242c58.958-14.961 164.613-29.45 211.9 17.214zm0 20.696c-47.287-46.663-152.941-32.174-211.9-17.214v-3.242c59.263-14.905 162.844-28.715 211.9 16.558 49.056-45.273 152.637-31.468 211.9-16.558v3.242c-58.959-14.96-164.609-29.449-211.9 17.214zm0 20.697c-47.287-46.663-152.941-32.174-211.9-17.214v-3.242c59.263-14.905 162.844-28.715 211.9 16.558 49.056-45.278 152.637-31.468 211.9-16.558v3.242c-58.959-14.96-164.609-29.449-211.9 17.214zm0 20.697c47.292-46.659 152.941-32.174 211.9-17.214v-3.242c-59.263-14.905-162.844-28.715-211.9 16.558-49.056-45.278-152.632-31.468-211.9-16.558v3.242c58.958-14.961 164.613-29.45 211.9 17.214zm0 20.697c47.292-46.659 152.941-32.174 211.9-17.214v-3.242c-59.263-14.905-162.844-28.715-211.9 16.558-49.056-45.278-152.632-31.468-211.9-16.558v3.242c58.958-14.961 164.613-29.45 211.9 17.214zm0 20.696c-47.287-46.663-152.941-32.174-211.9-17.214v-3.242c59.263-14.905 162.844-28.715 211.9 16.558 49.056-45.278 152.637-31.468 211.9-16.558v3.242c-58.959-14.96-164.609-29.449-211.9 17.214zm0 20.697c-47.287-46.659-152.941-32.174-211.9-17.214v-3.242c59.263-14.909 162.844-28.715 211.9 16.558 49.056-45.278 152.637-31.468 211.9-16.558v3.242c-58.959-14.96-164.609-29.445-211.9 17.214zm0 20.697c47.292-46.659 152.941-32.174 211.9-17.214v-3.242c-59.263-14.905-162.844-28.715-211.9 16.558-49.056-45.278-152.632-31.468-211.9-16.558v3.242c58.958-14.961 164.613-29.45 211.9 17.214zm0 20.696c47.292-46.663 152.941-32.174 211.9-17.214v-3.242c-59.263-14.905-162.844-28.715-211.9 16.558-49.056-45.273-152.632-31.468-211.9-16.558v3.242c58.958-14.96 164.613-29.449 211.9 17.214zm0 20.697c-47.287-46.663-152.941-32.174-211.9-17.214v-3.242c59.263-14.905 162.844-28.715 211.9 16.558 49.056-45.278 152.637-31.468 211.9-16.558v3.242c-58.959-14.96-164.609-29.449-211.9 17.214z" fill="#20d0c2"/><g fill="#ff5b61"><path d="M91.326 138.178l3.381-.531v278.295l-3.381.49V138.178zM420.681 138.178l-3.381-.531v278.295l3.381.49V138.178z"/></g><g fill="#c8cacc"><path d="M296.437 14.501l115.871 55.887c6.129 4.67 4.351 33.528 3.607 38.899-.748 5.372-4.402 3.492-8.429-.697-4.028-4.189 8.568-28.576-1.709-33.033L277.749 20.021c1.252-2.286 3.173-4.633 5.409-5.362 3.215-1.048 6.85-1.316 13.274-.157h.005z"/><path d="M450.085 67.003L324.242 40.297c-7.704-.055-23.958 23.851-26.66 28.558-2.697 4.707 1.344 5.455 7.094 4.605 5.746-.845 10.711-27.842 21.565-25.08l135.242 34.419c.406-2.573.323-5.603-.998-7.552-1.902-2.794-4.608-5.233-10.4-8.244z"/></g><path d="M459.318 89.136c-1.275 2.286-2.531 4.586-3.787 6.84a3321.933 3321.933 0 0 0-6.997 12.655c-9.653 17.561-43.948 10.304-56.534-.106a15.495 15.495 0 0 1-1.538-1.473c-3.113-3.409-4.896-8.226-5.958-12.646-1.289-5.353-1.755-10.997-1.898-16.498-.088-3.423.143-7.247-.042-10.679.12-.54.254-1.067.393-1.575l22.831 9.903c10.272 4.457-2.319 28.844 1.709 33.033 4.028 4.189 7.681 6.069 8.425.697.748-5.372 2.522-34.225-3.607-38.899l-.453-.217 49.629 12.632a19.18 19.18 0 0 1-2.162 6.337l-.011-.004zm-69.919-35.015l60.681 12.877c-16.189-8.425-45.255-14.799-57.102-15.607a19.097 19.097 0 0 0-3.58 2.725v.005zM275.587 26.353c-.388 2.587-.804 5.178-1.192 7.732-.725 4.762-1.46 9.529-2.212 14.29-3.108 19.791 28.456 35.043 44.779 34.507a15.567 15.567 0 0 0 2.12-.222c4.545-.79 8.91-3.51 12.457-6.36 4.295-3.446 8.12-7.621 11.598-11.884 2.162-2.656 4.323-5.815 6.563-8.42.236-.503.453-.998.651-1.483l-24.115-6.138c-10.854-2.762-15.815 24.235-21.565 25.08-5.746.845-9.792.097-7.09-4.605 2.697-4.702 18.951-28.613 26.66-28.558l.494.106-46.982-20.378a19.242 19.242 0 0 0-2.166 6.333zm76.727 15.094l-55.878-26.951c17.962 3.242 44.848 15.995 54.714 22.6a19.134 19.134 0 0 1 1.164 4.351z" fill="#fff"/><path d="M275.851 1.241c14.06.3 72.626 19.034 78.607 25.727.665.744 13.884 9.496 13.87 9.524l5.579 2.365 5.861 1.547c.009-.028 15.819 1.136 16.803.951 8.799-1.63 66.252 19.256 77.808 27.676 3.233 1.284 6.531 2.748 6.448 3.376.388 1.603-4.037 11.431-4.485 11.755-.351.125-1.949.111-4.42-.005-.54.48-1.109 1.155-1.667 2.069-2.323 3.81-11.561 20.54-14.706 26.262-12.392 22.54-52.118 15.884-68.649 2.199-14.923-12.351-11.889-42.363-12.401-48.095-.102-1.127.046-2.831.342-4.84-2.203-2.55-5.025-5.293-6.956-5.27-1.51-1.201-5.422-.757-8.725-.088-.993 1.769-1.921 3.205-2.693 4.037-3.907 4.222-19.875 29.814-39.236 30.447-21.45.707-56.945-18.337-52.95-43.749 1.012-6.452 3.944-25.334 4.434-29.768.125-1.118.129-2.051.055-2.813-1.718-1.219-2.79-2.046-2.974-2.332-.152-.531 2.36-11.011 3.644-12.046.296-.503 3.312.194 6.406 1.062l.005.009zm-.264 25.117c-.388 2.591-.799 5.178-1.192 7.732-.725 4.762-1.46 9.529-2.208 14.29-3.113 19.796 28.456 35.047 44.779 34.511a14.812 14.812 0 0 0 2.12-.222c4.545-.79 8.91-3.51 12.457-6.355 4.291-3.446 8.12-7.626 11.593-11.889 2.166-2.656 4.323-5.815 6.568-8.42 3.903-8.351 3.127-14.697 1.446-18.895-13.219-8.859-57.009-28.743-68.917-21.999-3.025 1.714-5.875 6.212-6.646 11.251v-.004zm183.735 62.783c2.471-4.457 2.974-9.759 1.63-12.965-5.293-12.618-52.095-23.69-67.97-24.775-3.898 2.296-8.397 6.836-10.42 15.829.18 3.436-.046 7.256.042 10.679.143 5.501.61 11.145 1.898 16.498 1.062 4.42 2.85 9.242 5.963 12.651.48.527.993 1.021 1.543 1.473 12.586 10.415 46.881 17.667 56.534.106 2.323-4.222 4.656-8.443 6.997-12.655 1.256-2.259 2.513-4.559 3.787-6.84h-.004z" fill="#0e7886"/><path d="M217.317 252.41l-40.253-21.681 18.586-18.591 21.662 40.271h.005z" fill="#fed198"/><path d="M182.505 225.288c4.642-.425 7.399-2.804 7.713-7.713L44.852 72.204l-7.713 7.718 145.366 145.366z" fill="#ff5b61"/><path d="M182.505 225.288c.393 3.713-1.201 5.718-5.436 5.436L31.698 85.353l5.436-5.436 145.367 145.367.004.004z" fill="#ec4b53"/><path d="M50.284 66.767L31.698 85.353l-4.591-4.591 18.586-18.586 4.591 4.591z" fill="#ecf0f1"/><path d="M31.92 57.585l-9.404 9.404c-2.526 2.526-2.526 6.656 0 9.182l4.591 4.591 18.586-18.586-4.591-4.591c-2.527-2.522-6.656-2.526-9.182 0z" fill="#20d0c2"/><path d="M219.936 254.262l-.776.771-16.937-10.757 6.933-6.933 10.78 16.914v.005z" fill="#666"/><path d="M190.219 217.575c3.714.393 5.718-1.196 5.436-5.436L50.284 66.772l-5.436 5.436L190.214 217.58l.005-.005z" fill="#ec4b53"/></svg>